HIERARCHY
ROOT Hips
{
  OFFSET 263.056 91.6644 -274.608
  CHANNELS 6 Xposition Yposition Zposition Zrotation Xrotation Yrotation
  JOINT LeftUpLeg
  {
    OFFSET 8.64259 1.95398 -2.38835
    CHANNELS 3 Zrotation Xrotation Yrotation
    JOINT LeftLeg
    {
      OFFSET 43.7702 0 0
      CHANNELS 3 Zrotation Xrotation Yrotation
      JOINT LeftFoot
      {
        OFFSET 40.6238 0 0
        CHANNELS 3 Zrotation Xrotation Yrotation
        JOINT LeftToeBase
        {
          OFFSET 12.7242 0 0
          CHANNELS 3 Zrotation Xrotation Yrotation
          End Site
          {
            OFFSET 0 0 0
          }
        }
      }
    }
  }
  JOINT RightUpLeg
  {
    OFFSET -8.2249 1.95398 -2.59336
    CHANNELS 3 Zrotation Xrotation Yrotation
    JOINT RightLeg
    {
      OFFSET 43.5653 0 0
      CHANNELS 3 Zrotation Xrotation Yrotation
      JOINT RightFoot
      {
        OFFSET 40.6238 0 0
        CHANNELS 3 Zrotation Xrotation Yrotation
        JOINT RightToeBase
        {
          OFFSET 12.7242 0 0
          CHANNELS 3 Zrotation Xrotation Yrotation
          End Site
          {
            OFFSET 0 0 0
          }
        }
      }
    }
  }
  JOINT Spine
  {
    OFFSET 0.165834 0.87714 6.61349
    CHANNELS 3 Zrotation Xrotation Yrotation
    JOINT Spine1
    {
      OFFSET 7.38963 1.71661e-005 0
      CHANNELS 3 Zrotation Xrotation Yrotation
      JOINT Spine2
      {
        OFFSET 11.9445 1.14441e-005 0
        CHANNELS 3 Zrotation Xrotation Yrotation
        JOINT Spine3
        {
          OFFSET 14.7254 4.19617e-005 0
          CHANNELS 3 Zrotation Xrotation Yrotation
          JOINT Spine4
          {
            OFFSET 10.9679 0 0
            CHANNELS 3 Zrotation Xrotation Yrotation
            JOINT RightShoulder
            {
              OFFSET 2.46616 -1.6653 3.69651
              CHANNELS 3 Zrotation Xrotation Yrotation
              JOINT RightArm
              {
                OFFSET 13.0012 0 0
                CHANNELS 3 Zrotation Xrotation Yrotation
                JOINT RightForeArm
                {
                  OFFSET 28.7848 1.52588e-005 0
                  CHANNELS 3 Zrotation Xrotation Yrotation
                  JOINT RightHand
                  {
                    OFFSET 26.5688 1.52588e-005 0
                    CHANNELS 3 Zrotation Xrotation Yrotation
                    End Site
                    {
                      OFFSET 0 0 0
                    }
                  }
                }
              }
            }
            JOINT LeftShoulder
            {
              OFFSET 2.38034 -1.29275 -3.7523
              CHANNELS 3 Zrotation Xrotation Yrotation
              JOINT LeftArm
              {
                OFFSET 16.3182 6.10352e-005 0
                CHANNELS 3 Zrotation Xrotation Yrotation
                JOINT LeftForeArm
                {
                  OFFSET 27.0901 0 0
                  CHANNELS 3 Zrotation Xrotation Yrotation
                  JOINT LeftHand
                  {
                    OFFSET 24.5451 1.52588e-005 0
                    CHANNELS 3 Zrotation Xrotation Yrotation
                    End Site
                    {
                      OFFSET 0 0 0
                    }
                  }
                }
              }
            }
            JOINT Neck
            {
              OFFSET 5.0226 -0.0266342 0
              CHANNELS 3 Zrotation Xrotation Yrotation
              JOINT Head
              {
                OFFSET 6.69364 2.86102e-005 0
                CHANNELS 3 Zrotation Xrotation Yrotation
                End Site
                {
                  OFFSET 0 0 0
                }
              }
            }
          }
        }
      }
    }
  }
}
MOTION
Frames:	10
Frame Time:	0.0416667
36.8668 97.4034 -249.095 -79.5425 -86.5211 -79.8362 -173.623 4.58167 87.4181 -12.7117 13.6165 -1.08276 61.3931 8.2852 14.6759 35.5641 7.34479 -12.8646 178.557 5.97681 91.221 -18.4007 -0.174551 -1.47176 68.8445 -2.89298 -1.53194 31.3118 -0.0860328 5.95558 -0.139057 7.20862 -89.9049 12.4568 -0.230986 0.216548 0.78589 -0.221236 0.226499 -21.7494 -0.28539 0.137117 -1.73671 -0.285388 0.137114 80.3266 -51.0881 -114.985 28.9907 -5.10962 9.41402 -12.3829 -15.3997 -43.7734 -9.95517 -1.28089 10.3493 -103.041 -43.841 56.9635 -30.2126 6.15498 5.02325 5.03453 8.28857 -31.2175 9.74415 0.86071 4.57472 11.4396 1.57761 2.60014 -4.43053 0.922394 -0.238106 
36.9192 97.4223 -249.027 -79.6241 -86.4472 -79.8556 -173.664 4.56242 87.4276 -12.8607 13.012 -0.957331 62.0621 8.4502 13.6531 34.5005 6.40089 -11.6093 178.525 5.88978 91.2177 -18.2617 0.199265 -1.42439 68.7588 -2.87484 -1.52418 31.7409 -0.109536 7.89053 -0.0976327 7.21921 -89.8978 12.4356 -0.145357 0.220734 0.764596 -0.13551 0.226915 -21.7705 -0.204988 0.166842 -1.75788 -0.204982 0.166846 80.3615 -51.1751 -114.901 29.0524 -5.1522 9.37145 -12.5163 -15.4967 -43.8138 -9.61026 -1.28226 10.9397 -103.456 -43.6319 56.2404 -30.007 6.14279 5.23371 5.00242 8.26 -31.1879 10.0965 0.918141 4.84065 11.4143 1.52211 2.51227 -4.35403 0.889931 -0.278288 
36.9418 97.3912 -248.901 -80.2569 -86.0672 -80.2894 -173.533 4.42016 87.5924 -12.7133 12.9455 -0.995775 61.9782 8.54933 14.2376 35.199 7.02494 -12.4799 178.647 5.67965 91.3506 -17.8405 -0.197031 -1.49625 68.2068 -2.73176 -1.45853 32.9041 0.0383213 8.04398 -0.0554707 7.22296 -89.9001 12.428 -0.0626521 0.206726 0.757024 -0.0534926 0.209284 -21.778 -0.121891 0.178335 -1.76539 -0.12188 0.178343 80.156 -51.4027 -115.113 28.6536 -5.533 9.19538 -11.8318 -15.7171 -43.3864 -9.48409 -1.26092 10.8319 -102.767 -43.5046 57.2239 -30.1688 6.43014 4.94384 5.14372 8.72469 -31.4319 10.3085 1.03138 5.70409 11.4835 1.59533 2.20746 -4.24074 1.03025 -0.0441216 
37.0078 97.394 -248.859 -73.5437 -86.7112 -73.7273 -173.608 4.46987 87.4554 -12.2919 13.4681 -1.04452 62.1327 8.57397 13.8665 34.4282 6.33567 -11.0044 178.474 5.6288 91.1584 -17.5591 -0.13262 -1.39074 68.8233 -2.93305 -1.55317 31.6925 -0.0932154 7.35324 -0.115105 7.20045 -89.9014 12.4731 -0.18175 0.217856 0.802181 -0.171982 0.225637 -21.733 -0.238818 0.15316 -1.72034 -0.238815 0.153161 80.2248 -51.4284 -115.002 28.5387 -5.413 9.50233 -12.658 -15.8533 -44.1351 -8.59082 -1.1787 11.3265 -103.057 -43.618 56.8372 -30.0422 6.34264 5.02181 5.27436 8.85528 -31.6144 10.5286 1.08274 5.97892 11.4298 1.77593 2.36578 -4.2214 1.16854 0.133952 
37.0556 97.3506 -248.75 -71.998 -86.696 -72.1695 -173.718 4.35538 87.342 -12.0713 13.4983 -0.964757 62.1058 9.00355 14.511 34.5715 6.46518 -12.0904 178.365 5.59821 91.0701 -17.5157 -0.306167 -1.30703 69.2208 -3.04538 -1.60406 31.0032 -0.140828 6.40662 -0.104079 7.2102 -89.902 12.4536 -0.160146 0.214022 0.782656 -0.150583 0.220857 -21.7525 -0.217079 0.155995 -1.73986 -0.217071 0.155997 80.1059 -51.3394 -115.211 28.4886 -5.46545 9.44917 -12.4133 -15.5833 -43.7682 -7.93319 -1.07819 11.0326 -102.92 -43.6147 57.0431 -30.0424 6.34711 4.78272 5.40277 9.09783 -31.6549 10.3303 1.09829 6.28001 11.4761 1.81419 2.17393 -4.3517 1.25071 0.101926 
37.1071 97.364 -248.612 -67.6861 -86.7522 -67.8539 -173.641 4.42767 87.3674 -11.9949 13.1161 -1.0053 62.4268 8.79978 13.7597 34.6239 6.51232 -12.1528 178.458 5.44568 91.0938 -16.9479 -0.257177 -1.3956 68.9682 -2.99177 -1.58176 31.9101 -0.05176 6.90098 -0.0836008 7.19168 -89.9061 12.4906 -0.12134 0.201598 0.819633 -0.112348 0.206734 -21.7155 -0.176315 0.155812 -1.70284 -0.176318 0.155803 80.3382 -51.2318 -114.913 28.6353 -5.6416 9.39418 -11.7596 -15.7255 -43.1382 -9.21526 -1.22249 10.7901 -103.176 -43.5567 56.628 -30.003 6.3257 5.00125 5.26165 8.74587 -31.6358 10.0852 0.972744 5.34958 11.496 1.74707 2.13034 -4.749 1.19477 0.136061 
37.1604 97.344 -248.441 -63.8737 -86.7968 -64.1265 -173.777 4.37868 87.2135 -11.7333 13.5983 -0.99018 62.1864 8.97046 14.3797 34.7253 6.6034 -12.1947 178.349 5.65527 90.9546 -17.2375 -0.0525556 -1.3207 69.1322 -2.99257 -1.57891 32.0077 -0.0435353 7.02238 -0.0856988 7.17078 -89.8945 12.5324 -0.119967 0.224706 0.861442 -0.109956 0.229766 -21.6737 -0.181959 0.178264 -1.661 -0.181951 0.178265 80.0511 -51.5847 -115.195 28.307 -5.39513 10.0179 -12.2814 -15.8678 -43.7679 -8.85811 -1.17295 10.7099 -103.216 -43.6283 56.6016 -30.0988 6.36073 5.10605 5.36659 9.01252 -31.6123 10.0406 0.999683 5.62915 11.6081 1.74079 2.28157 -4.90357 1.1547 -0.229003 
37.3083 97.2587 -248.289 -57.2846 -87.0231 -57.4985 -174.199 4.71389 86.9256 -12.2933 13.1541 -0.576344 62.4531 9.59897 14.6252 34.951 6.80415 -12.471 178.295 5.71507 90.8929 -17.3059 0.321928 -1.28039 69.6307 -3.09464 -1.62006 30.8292 -0.188734 6.95303 -0.104142 7.17646 -89.8983 12.5211 -0.158408 0.221526 0.850133 -0.148505 0.22828 -21.685 -0.217668 0.163675 -1.67237 -0.217667 0.163665 80.357 -51.4114 -114.816 28.3242 -5.61679 9.44431 -11.2238 -15.6587 -42.7596 -8.70364 -1.15818 10.7633 -103.316 -43.4957 56.3881 -30.22 6.09256 5.25419 5.53508 8.98955 -31.7361 9.65685 0.964243 5.61476 11.8225 1.58588 2.35514 -4.93981 0.984375 -0.452106 
37.3734 97.3125 -248.161 -54.3808 -87.3254 -54.6659 -173.869 4.27262 87.0523 -11.6798 13.5696 -0.929827 62.7467 9.43399 14.1642 34.4479 6.35406 -12.229 177.996 5.20083 90.7526 -16.387 2.53983 -0.950333 69.2556 -3.00219 -1.57827 31.9369 -0.203441 11.2729 -0.0996212 7.18772 -89.91 12.4986 -0.155054 0.197572 0.8276 -0.146201 0.204201 -21.7076 -0.207263 0.14184 -1.69491 -0.207268 0.141834 80.5931 -51.1921 -114.555 28.6681 -5.06593 9.87575 -12.0489 -15.777 -43.4933 -7.74747 -1.04612 10.8666 -103.944 -43.769 55.569 -29.8542 6.2845 5.42708 5.02974 8.3929 -31.3084 9.92987 0.896261 4.76699 11.3513 1.45818 2.0912 -4.36601 0.92401 0.268328 
37.6117 97.1496 -247.978 -45.7717 -87.8013 -45.9844 -174.175 4.64855 86.8084 -12.8627 13.1779 -0.622682 63.5501 10.5053 13.9524 33.8151 5.79228 -12.7888 177.936 5.42966 90.7199 -17.308 2.90628 -0.936521 69.9525 -3.08571 -1.60417 32.2775 -0.134008 10.8384 -0.120111 7.20661 -89.9151 12.4608 -0.198162 0.192437 0.789852 -0.189504 0.200965 -21.7454 -0.246841 0.123987 -1.73273 -0.246839 0.123979 80.5646 -51.4787 -114.488 28.2721 -5.5394 9.80169 -11.6091 -15.4588 -43.1193 -8.26109 -1.0742 10.26 -103.644 -43.6069 55.9441 -30.2247 6.41761 5.07831 4.84396 8.26179 -31.0626 10.2214 0.883707 4.44204 11.6646 1.35975 1.94747 -4.6913 0.857977 0.056992 
